<svg width="414" height="507" viewBox="0 0 414 507" fill="none" xmlns="http://www.w3.org/2000/svg">
<g filter="url(#filter0_d_618_2628)">
<path d="M409.438 145.542L341.865 72.7708L274.292 0V115.542C274.292 132.11 287.723 145.542 304.292 145.542H409.438Z" fill="#ED4000"/>
<path d="M304.292 145.542C287.723 145.542 274.292 132.11 274.292 115.542V0H96.4074C45.3722 0 4 41.3722 4 92.4074V309.565V382.336V404.282V406.593H409.438V404.282V382.336V309.565V227.553V145.542H304.292Z" fill="#FF6C37"/>
<path d="M317.03 499C368.065 499 409.438 457.628 409.438 406.593H4C4 457.628 45.3722 499 96.4074 499H317.03Z" fill="#ED4000"/>
</g>
<path d="M132.234 455.243V452.383H140.814V455.243C140.814 457.388 142.024 459.368 145.434 459.368C148.734 459.368 149.999 457.663 149.999 454.913V426.203H158.909V455.463C158.909 462.448 153.739 467.618 145.544 467.618C136.579 467.618 132.234 462.283 132.234 455.243ZM164.857 438.028C164.857 430.658 171.072 425.433 179.817 425.433C188.562 425.433 194.062 430.273 194.062 437.973H185.207C185.207 435.113 183.062 433.353 179.707 433.353C176.077 433.353 173.767 435.003 173.767 437.698C173.767 440.173 175.032 441.383 177.892 441.988L183.997 443.253C191.257 444.738 194.722 448.203 194.722 454.638C194.722 462.503 188.562 467.618 179.212 467.618C170.137 467.618 164.252 462.723 164.252 455.078H173.107C173.107 458.048 175.307 459.698 179.267 459.698C183.282 459.698 185.812 458.103 185.812 455.518C185.812 453.263 184.767 452.108 182.072 451.558L175.857 450.293C168.597 448.808 164.857 444.683 164.857 438.028ZM238.248 446.498C238.248 458.928 230.053 467.563 218.228 467.563C206.458 467.563 198.373 458.983 198.373 446.553C198.373 434.123 206.513 425.488 218.283 425.488C230.108 425.488 238.248 434.068 238.248 446.498ZM228.843 446.498C228.843 438.743 224.883 434.068 218.338 434.068C211.738 434.068 207.778 438.743 207.778 446.498C207.778 454.308 211.738 458.983 218.338 458.983C224.883 458.983 228.843 454.198 228.843 446.498ZM253.256 466.903H244.456V426.203H253.256L270.416 452.108V426.203H279.216V466.903H270.416L253.256 441.053V466.903Z" fill="#FF6C37"/>
<path fill-rule="evenodd" clip-rule="evenodd" d="M207.098 307.084C259.23 378.152 310.249 287.248 310.173 232.583C310.085 167.95 244.576 131.827 207.055 131.827C146.832 131.827 89.4771 181.599 89.4771 249.699C89.4771 325.392 155.22 367.32 207.055 367.32C195.325 365.63 156.236 357.255 155.711 267.222C155.357 206.328 175.575 182 206.97 192.702C207.672 192.963 241.6 206.347 241.6 250.067C241.6 293.601 207.098 307.084 207.098 307.084Z" fill="url(#paint0_linear_618_2628)"/>
<path fill-rule="evenodd" clip-rule="evenodd" d="M207.036 192.654C172.588 180.781 130.39 209.172 130.39 266.039C130.39 358.893 199.198 367.32 207.538 367.32C267.761 367.32 325.116 317.547 325.116 249.447C325.116 173.754 259.373 131.827 207.538 131.827C221.894 129.838 284.917 147.364 284.917 233.5C284.917 289.672 237.859 320.252 207.252 307.186C206.55 306.925 172.622 293.543 172.622 249.821C172.622 206.287 207.036 192.654 207.036 192.654Z" fill="url(#paint1_linear_618_2628)"/>
<defs>
<filter id="filter0_d_618_2628" x="0" y="0" width="413.438" height="507" filterUnits="userSpaceOnUse" color-interpolation-filters="sRGB">
<feFlood flood-opacity="0" result="BackgroundImageFix"/>
<feColorMatrix in="SourceAlpha" type="matrix" values="0 0 0 0 0 0 0 0 0 0 0 0 0 0 0 0 0 0 127 0" result="hardAlpha"/>
<feOffset dy="4"/>
<feGaussianBlur stdDeviation="2"/>
<feComposite in2="hardAlpha" operator="out"/>
<feColorMatrix type="matrix" values="0 0 0 0 0 0 0 0 0 0 0 0 0 0 0 0 0 0 0.25 0"/>
<feBlend mode="normal" in2="BackgroundImageFix" result="effect1_dropShadow_618_2628"/>
<feBlend mode="normal" in="SourceGraphic" in2="effect1_dropShadow_618_2628" result="shape"/>
</filter>
<linearGradient id="paint0_linear_618_2628" x1="124.326" y1="166.531" x2="290.309" y2="332.566" gradientUnits="userSpaceOnUse">
<stop stop-color="#ED4000"/>
<stop offset="1" stop-color="white"/>
</linearGradient>
<linearGradient id="paint1_linear_618_2628" x1="290.333" y1="332.543" x2="124.35" y2="166.522" gradientUnits="userSpaceOnUse">
<stop stop-color="#ED4000"/>
<stop offset="1" stop-color="white"/>
</linearGradient>
</defs>
</svg>
